<?xml version="1.0" encoding="utf-8"?>
<!-- Generator: Adobe Illustrator 15.1.0, SVG Export Plug-In . SVG Version: 6.00 Build 0)  -->
<!DOCTYPE svg PUBLIC "-//W3C//DTD SVG 1.1//EN" "http://www.w3.org/Graphics/SVG/1.1/DTD/svg11.dtd">
<svg version="1.1" id="Layer_1" xmlns="http://www.w3.org/2000/svg" xmlns:xlink="http://www.w3.org/1999/xlink" x="0px" y="0px"
	 width="223px" height="221px" viewBox="0 0 223 221" enable-background="new 0 0 223 221" xml:space="preserve">
<path fill="#C546B2" d="M139.718,53.411c0,15.916-16.877,31.734-28.819,43.589C101.21,86.94,82.08,69.327,82.08,53.411
	c0-15.917,12.902-28.819,28.818-28.819C126.815,24.591,139.718,37.494,139.718,53.411z"/>
<path fill="#23C8CA" d="M82.079,172.181c0-15.916,16.877-31.734,28.819-43.589c9.688,10.06,28.818,27.673,28.818,43.589
	c0,15.917-12.902,28.819-28.818,28.819C94.981,201,82.079,188.098,82.079,172.181z"/>
<path fill="#474747" d="M165.283,140.717c-15.916,0-31.734-16.877-43.589-28.819c10.06-9.688,27.673-28.818,43.589-28.818
	c15.917,0,28.819,12.902,28.819,28.818C194.103,127.814,181.2,140.717,165.283,140.717z"/>
<path fill="#3471FB" d="M57.615,140.717c15.916,0,31.734-16.877,43.589-28.819c-10.06-9.688-27.673-28.818-43.589-28.818
	c-15.917,0-28.819,12.902-28.819,28.818C28.796,127.814,41.698,140.717,57.615,140.717z"/>
</svg>
